<?xml version="1.0" standalone="no"?>
<!DOCTYPE svg PUBLIC "-//W3C//DTD SVG 20010904//EN"
 "http://www.w3.org/TR/2001/REC-SVG-20010904/DTD/svg10.dtd">
<svg version="1.0" xmlns="http://www.w3.org/2000/svg"
 width="91.000000pt" height="91.000000pt" viewBox="0 0 91.000000 91.000000"
 preserveAspectRatio="xMidYMid meet">
<metadata>
Created by potrace 1.11, written by Peter Selinger 2001-2013
</metadata>
<g transform="translate(0.000000,91.000000) scale(0.100000,-0.100000)"
fill="#000000" stroke="none">
<path d="M807 629 c-16 -4 -61 -7 -102 -7 -40 0 -77 -2 -82 -5 -4 -3 -62 -17
-128 -32 -384 -84 -472 -109 -482 -139 -15 -46 9 -125 43 -144 18 -10 111 8
277 53 53 14 105 28 115 30 9 3 35 9 57 15 22 6 57 15 77 21 51 12 120 40 138
54 8 6 40 22 70 34 94 38 100 42 100 71 0 27 -20 53 -44 56 -6 0 -24 -3 -39
-7z"/>
</g>
</svg>
